<?xml version="1.0" encoding="UTF-8"?>
<svg id="Layer_1" xmlns="http://www.w3.org/2000/svg" version="1.1" viewBox="0 0 160 160">
  <!-- Generator: Adobe Illustrator 30.3.0, SVG Export Plug-In . SVG Version: 2.1.3 Build 182)  -->
  <defs>
    <style>
      .st0 {
        fill: #fff;
      }
    </style>
  </defs>
  <path class="st0" d="M64.86,121.83c-6.67,7.27-16.34,7.77-22.78,1.56-6.46-6.23-5.88-16.49.52-22.09,7.16-6.25,16.69-4.44,22.83,2.64,3.5,4.04,9.16,8.12,14.62,7.88,6.9-.3,12.34-5.41,16.75-9.7,6.4-6.21,16.27-5.55,21.83.7,5.85,6.58,5.01,16.61-2.29,22.16-6.94,5.27-15.83,3.42-21.95-3.61-3.44-3.95-8.87-7.9-14.34-7.71-5.51.19-11.45,4.09-15.19,8.16"/>
  <path class="st0" d="M146.27,70.25c-5.56-6.26-15.43-6.91-21.83-.7-4.42,4.28-9.85,9.4-16.75,9.7-4.22.18-7.91-2.02-11.13-4.57-3.52-2.79-6.18-6.58-10.42-8.41-.71-.31-1.42-.56-2.15-.76-.45-.13-.89-.24-1.35-.33-.38-.07-.75-.12-1.14-.16-.81-.09-1.62-.12-2.55-.07-3.49.19-6.97,1.52-9.78,4.24-4.42,4.28-9.85,9.4-16.75,9.7-5.46.24-11.12-3.84-14.62-7.88-6.14-7.08-15.67-8.89-22.83-2.64-6.4,5.6-6.99,15.86-.52,22.09,6.44,6.21,16.11,5.7,22.78-1.56,3.74-4.08,9.68-7.97,15.19-8.16,5.47-.19,10.9,3.76,14.34,7.71,2.42,2.78,5.28,4.71,8.28,5.75.07.02.14.03.2.06.81.27,1.63.5,2.46.63.6.1,1.21.11,1.82.14.33.01.65.05.98.04,4.23-.12,8.52-2.02,12-5.81,3.74-4.08,9.68-7.97,15.19-8.16,5.48-.19,10.9,3.76,14.34,7.71,6.12,7.03,15.01,8.88,21.95,3.61,7.3-5.55,8.14-15.57,2.29-22.16"/>
  <path class="st0" d="M64.86,56.32c-6.67,7.27-16.34,7.77-22.78,1.56-6.46-6.23-5.88-16.49.52-22.09,7.16-6.25,16.69-4.44,22.83,2.64,3.5,4.04,9.16,8.12,14.62,7.88,6.9-.3,12.34-5.41,16.75-9.7,6.4-6.21,16.27-5.56,21.83.7,5.85,6.58,5.01,16.61-2.29,22.16-6.94,5.28-15.83,3.42-21.95-3.61-3.44-3.95-8.87-7.9-14.34-7.71-5.51.19-11.45,4.09-15.19,8.16"/>
</svg>