<svg xmlns="http://www.w3.org/2000/svg" fill="none" viewBox="0 0 117 48"><g fill="#123257" clip-path="url(#a)"><path d="M116.568 23.796h-.716l-.335 1.038-.362-1.038h-.74l-.11 1.672h.53l.064-.993.353.992h.496l.314-.977.091.978h.567zm-2.394 0v.454h-.447v1.214h-.57V24.25h-.45v-.454zm-84.614-.003-2.44 23.09h-6.73l-8.87-13.471-1.42 13.47H3.14l2.506-23.09h7.29l8.4 12.902L22.7 23.793zm19.594-.033h-8.742l-11.94 23.122h7.589l2.098-4.421h9.457l1.175 4.421h7.585zm-8.757 13.756 3.91-8.312 2.134 8.312zm27.148 9.829q-3.829.001-6.382-.907-2.557-.908-3.876-2.67-1.319-1.765-1.255-4.273h7.125q.033.959.594 1.632.562.677 1.599 1.039 1.037.363 2.423.362.89 0 1.584-.183.691-.181 1.105-.578.412-.396.478-1.057.065-.79-.478-1.27-.544-.479-1.568-.806a23 23 0 0 0-2.26-.594 72 72 0 0 1-2.588-.61 23 23 0 0 1-2.588-.824 6.9 6.9 0 0 1-2.162-1.319 5.7 5.7 0 0 1-1.434-2.076q-.51-1.237-.314-3.018.197-2.242 1.517-3.745t3.562-2.275q2.243-.776 5.277-.776 3.461 0 5.922.859 2.457.858 3.776 2.539t1.255 4.09h-6.763q-.132-.89-.676-1.502t-1.468-.922q-.923-.315-2.08-.314c-.572 0-1.086.076-1.55.231q-.692.233-1.09.661-.397.429-.493 1.023-.066.826.494 1.337.56.51 1.568.825 1.005.314 2.274.579t2.607.578q1.335.314 2.606.825t2.193 1.319a5.3 5.3 0 0 1 1.418 2.012q.494 1.206.33 2.954c-.156 1.562-.664 2.844-1.535 3.843q-1.301 1.5-3.63 2.259-2.325.758-5.526.758zm43.639-23.552-.594 23.09h-6.762l.237-15.31-6.44 15.31H91.46l-3.775-15.177-2.561 15.176H78.66l3.928-23.09h9.366l3.675 14.948 6.157-14.947zM0 23.768S51.212-4.53 117 14.503c0 0-45.853-21.028-102.238-3.188z"/><path d="M18.34 8.288S47.554-1.9 87.007 4.902c0 0-31.6-8.47-60.922-3.148z"/></g><defs><clipPath id="a"><path fill="#fff" d="M0 0h117v47.345H0z"/></clipPath></defs></svg>